# xmcd
#
# Track frame offsets:
#  150
#  11410
#  29915
#  69127
#  85765
#  115727
#  132760
#  166717
#  181392
#
# Disc length: 2924 seconds
#
# Revision: 0
# Processed by: cddbd v1.5.1PL2 Copyright (c) Steve Scherf et al.
# Submitted via: Collectorz.com_Music_Collector 6.10
#
DISCID=660b6a09
DTITLE=Bruce Springsteen - The Highway Is Alive Tonight [CD2)
DYEAR=1995
DGENRE=
TTITLE0=Interview By Bob Costas #1
TTITLE1=The Ghost Of Tom Joad
TTITLE2=Interview By Bob Costas #2
TTITLE3=Sinaloa Cowboyw
TTITLE4=Interview By Bob Costas #3
TTITLE5=Youngstown
TTITLE6=Interview By Bob Costas #4
TTITLE7=Straight Time
TTITLE8=Interview By Bob Costas #5
EXTD=
EXTT0=
EXTT1=
EXTT2=
EXTT3=
EXTT4=
EXTT5=
EXTT6=
EXTT7=
EXTT8=
PLAYORDER=
